/* XPM */
static char *_e2b7401cb664c3d9058c6d80918a3faHJMq6N2AV9cUfz4g[] = {
/* columns rows colors chars-per-pixel */
"32 32 4 1 ",
"  c black",
". c #CD9229",
"X c #D1A326",
"o c white",
/* pixels */
"                                ",
"                                ",
"                                ",
"                                ",
"                                ",
"              ....              ",
"             .XXX..             ",
"            .XXXXX..            ",
"           .XXX..XX..           ",
"          .XXXX...XX..          ",
"          XXXXXX...XX..         ",
"         XXXXXXXoo..X..         ",
"         XXXXXXXXXo..X..        ",
"        XXXXXXXXXXo..XX.        ",
"        XXXXXXXXXXX..XX.        ",
"        XXXXXXXXXXX..XX.        ",
"        XXXXXXXXXXX..XX.        ",
"         XXXXXXXXXX.XX..        ",
"         XXXXXXXXX..XX.         ",
"          XXXXXXX..XX..         ",
"          XXXXX..XXX..          ",
"           XXXXXXXX..           ",
"             XXXXX..            ",
"              XXX.              ",
"                                ",
"                                ",
"                                ",
"                                ",
"                                ",
"                                ",
"                                ",
"                                "
};
