/* XPM */
static char *_d140c5e6a0c4f4dce9ce2bbcde1ee42PrngY9WDVNwhQuhI[] = {
/* columns rows colors chars-per-pixel */
"32 32 4 1 ",
"  c black",
". c #8A2C2C",
"X c #E24B4B",
"o c white",
/* pixels */
"                                ",
"                                ",
"                                ",
"                                ",
"                                ",
"                                ",
"              XXXXX             ",
"             XXXXXXXX           ",
"            XXXXXXXXXX          ",
"          XXXXXXXXXXXXX         ",
"          XXXXXXXXXXXXXX        ",
"         XXXXXXXXXXXXXXXX       ",
"        XXXXXoXXXXXoXXXX        ",
"         XXXo oXXXo oXXXX       ",
"        XXXXo oXXXo oXXX        ",
"         XXXX XXXXX XXXXX       ",
"        XXXXXXXXXXXXXXXX        ",
"         XXXXXXXXXXXXXXXX       ",
"        XXXXXXXXXXXXXXXX      X ",
"         XXXXXX...XXXXXXX       ",
"  X     XXXXXX..X..XXXXX        ",
"         XXXXXX...XXXXXXX    X  ",
"   X    XXXXXXXXXXXXXXXX        ",
"         XXXXXXXXXX XXXXX    X  ",
"     X  XXXXXX XXXX  XXX    XX  ",
"    XX   XXXX  X XX  XXXX   XX  ",
"    XX   XXX   X  X   XXX   XX  ",
"    XX   XX    X  X  X  XX  X   ",
"    XX  XXX X XX  X  X   XX X   ",
"    XXXXXX  XXXX  XXXX   XXXX   ",
"     XXXX    XX    XX     XXX   ",
"                                "
};
