/* XPM */
static char *_59a413edb0244e0cefacc3e123f3e26mfwtPk5OaU25DeUO[] = {
/* columns rows colors chars-per-pixel */
"32 32 4 1 ",
"  c black",
". c #8A2C2C",
"X c #E24B4B",
"o c white",
/* pixels */
"                                ",
"                                ",
"                                ",
"                                ",
"                                ",
"                                ",
"              XXXXX             ",
"             XXXXXXXX           ",
"            XXXXXXXXXX          ",
"          XXXXXXXXXXXXX         ",
"          XXXXXXXXXXXXXX        ",
"         XXXXXXXXXXXXXXXX       ",
"        X XXXoXXXXXoXXXX        ",
"         XXoo  XXoo  XXXX       ",
"        X Xoo  XXoo  XXX        ",
"         XXXXoXXXXXoXXXXX       ",
"        X XXXXXXXXXXXXXX        ",
"         XXXXXXXXXXXXXXXX       ",
"        X XXXXXXXXXXXXXX        ",
"         XXXXXX...XXXXXXX       ",
"        X XXXX..X..XXXXX        ",
"         XXXXXX...XXXXXXX       ",
"  X     X XXXXXXXXXXXXXX        ",
"         XXXXXXXXXX XXXXX       ",
" X      X XXXX XXXX  XXX        ",
"         XXXX  XXXX  XXXX       ",
"         XXX   XXXXXX XXXX      ",
"    X    XXX   X  XXX   XXX     ",
"    X    X     X    XX    X     ",
"    XXX XX X   X    XX    X     ",
"      XXX  XX  XX  XXX  X X     ",
"            XXXX XXXXX  XXX     "
};
