/* XPM */
static char *_cefe21984a942a9f7526977805e478fRq9EULkAa2OLEZuU[] = {
/* columns rows colors chars-per-pixel */
"32 32 4 1 ",
"  c black",
". c #8A2C2C",
"X c #E24B4B",
"o c white",
/* pixels */
"                                ",
"                                ",
"                                ",
"                                ",
"                                ",
"                                ",
"             XXXXX              ",
"           XXXXXXXX             ",
"          XXXXXXXXXX            ",
"         XXXXXXXXXXXXX          ",
"        XXXXXXXXXXXXXX          ",
"       XXXXXXXXXXXXXXXX         ",
"        XXXXoXXXXXoXXX X        ",
"       XXXX  ooXX  ooXX         ",
"        XXX  ooXX  ooX X        ",
"       XXXXXoXXXXXoXXXX         ",
"        XXXXXXXXXXXXXX X        ",
"       XXXXXXXXXXXXXXXX         ",
"        XXXXXXXXXXXXXX X        ",
"       XXXXXXX...XXXXXX         ",
"        XXXXX..X..XXXX X        ",
"       XXXXXXX...XXXXXX         ",
"        XXXXXXXXXXXXXX X     X  ",
"       XXXXX XXXXXXXXXX         ",
"        XXX  XXXX XXXX X      X ",
"       XXXX  XXXX  XXXX         ",
"      XXXX XXXXXX   XXX         ",
"     XXX   XXX  X   XXX    X    ",
"     X    XX    X     X    X    ",
"     X    XX    X   X XX XXX    ",
"     X X  XXX  XX  XX  XXX      ",
"     XXX  XXXXX XXXX            "
};
