/* XPM */
static char *_0d49e9c1f6e46f6c20a4ada259dcbf5kZeKxJa2mDuw7XOt[] = {
/* columns rows colors chars-per-pixel */
"32 32 4 1 ",
"  c black",
". c #8A2C2C",
"X c #E24B4B",
"o c white",
/* pixels */
"                                ",
"                                ",
"                                ",
"                                ",
"                                ",
"                                ",
"              XXXXX             ",
"             XXXXXXXX           ",
"            XXXXXXXXXX          ",
"          XXXXXXXXXXXXX         ",
"          XXXXXXXXXXXXXX        ",
"         XXXXXXXXXXXXXXXX       ",
"        XXXXX XXXXX XXXX        ",
"         XXXo oXXXo oXXXX       ",
"        XXXXo oXXXo oXXX        ",
"         XXXXoXXXXXoXXXXX       ",
"        XXXXXoXXXXXoXXXX        ",
"         XXXXXXXXXXXXXXXX       ",
"        XXXXXXXXXXXXXXXX        ",
"         XXXXXX...XXXXXXX       ",
"        XXXXXX..X..XXXXX        ",
"         XXXXXX...XXXXXXX       ",
"        XXXXXXXXXXXXXXXX        ",
"         XXXXXXXXXX XXXXX       ",
"        XXXXXX XXXX  XXX        ",
"         XXXX  X XX  XXXX       ",
"         XXX   X  X    XX       ",
"         XX    X  X     XX      ",
"        XXX   XX  X      XX     ",
"       XX    XXX  XX      X     ",
"X    X       XX    XX       X   ",
"  X                            X"
};
