/* XPM */
static char *_01a7e3045184c7395f42361e4a3d9d6G7OdbCluVL1BODt4[] = {
/* columns rows colors chars-per-pixel */
"32 32 5 1 ",
"  c black",
". c #8A2C2C",
"X c #E24B4B",
"o c #D9B028",
"O c white",
/* pixels */
"                                ",
"      o         oo       oo     ",
"         oo    oOOo     oooo  O ",
"  oo    oooo    oo   o  oooo    ",
" oOOo   oooo        ooo  oo     ",
" oOOo    oo          o          ",
"  oo          XXXXX             ",
"             XXXXXXXX   o   oo  ",
"    o       XXXXXXXXXX     oOOo ",
"   ooo    XXXXXXXXXXXXX    oOOo ",
"    o     XXXXXXXXXXXXXX    oo  ",
" o       XXXXXXXXXXXXXXXX       ",
"        X XXXOXXXXXOXXXX        ",
"    o    XXXO OXXXO OXXXX   o   ",
"   ooo  X XXO OXXXO OXXX   ooo  ",
"  ooOo   XXXXOXXXXXOXXXXX   o   ",
"   ooo  X XXXXXXXXXXXXXX        ",
"    o    XXXXXXXXXXXXXXXX       ",
"        X XXXXXXXXXXXXXX    oo  ",
"         XXXXXX...XXXXXXX  oOOo ",
" oo     X XXXX..X..XXXXX   oOOo ",
"oooo     XXXXXX...XXXXXXX   oo  ",
"oooo    X XXXXXXXXXXXXXX        ",
" oo  o   XXXXXXXXXX XXXXX  o    ",
"        X XXXX XXXX  XXX  ooo   ",
"         XXXX  XXXX  XXXX  o    ",
"     X   XXX   XXXX   XXXX      ",
"     XX XXX    X  X     XXX  X  ",
"  o   XXXXX X XX  XX  X  XX XX  ",
" oOo    XX  XXXX  XXXXX  XXXX   ",
"  o          XX    XX           ",
"                                "
};
