/* XPM */
static char *_bad1fd65206478396a0b838282b3682OTEEKn2pzWqQVqYQ[] = {
/* columns rows colors chars-per-pixel */
"32 32 4 1 ",
"  c None",
". c black",
"X c #266614",
"o c #47CA24",
/* pixels */
"..oXooXooXXXXooXoooXoXooooo.....",
"XoX.......................ooooo.",
"o.............................oX",
"...............................o",
"..ooo.o..o.Xooo.ooo.Xoo....o...o",
"..o...oo.o...o..o...o.o....o...o",
"..oo..o.oo...o..oo..oo.....o...o",
"..o...o..o...o..o...o.o....o...o",
"..Xoo.o..X...o..ooo.o..X...o...o",
"...........................o...o",
"...........................o...o",
"...........................o...o",
".................o.........o...o",
"o..............oXo........oo...o",
"ooXooooo.....ooXoo.......ooo...X",
".......o....ooXoooooooooooo....o",
"........o....Xoooo.............o",
"........o.......oo.............o",
"........o........o.............o",
"........Xo.....................o",
".........ooo...................o",
"...........oo..................o",
"............o..................o",
"............o..................o",
"............o..................X",
"............o..................o",
"............o..................o",
"............o.................oo",
"............o.................o.",
"............o.................o.",
"............o.................o.",
"............X ................X."
};
